<svg width="160" height="74" viewBox="0 0 160 74" fill="none" xmlns="http://www.w3.org/2000/svg">
<path d="M46.3101 45.6967H42.3447V60.7307H38.9553V52.4504L33.8509 52.1352C34.0431 52.032 34.2303 52.1701 34.4135 52.5481C34.6006 52.9265 34.6947 53.3892 34.6947 53.9353C34.6947 56.9524 33.3893 58.4611 30.7781 58.4611C30.1594 58.4611 29.5922 58.3468 29.0765 58.1177C28.5609 57.8845 28.1203 57.5666 27.7547 57.1649C27.389 56.7587 27.1078 56.2848 26.911 55.7431C26.714 55.2011 26.6156 54.6173 26.6156 53.9914C26.6156 50.8528 28.3289 49.2836 31.7555 49.2836H38.9553V45.6967H26.25V42.537H46.3101V45.6967ZM29.8149 54.0824C29.8149 54.9186 30.1359 55.3365 30.7781 55.3365C31.3219 55.3365 31.5938 54.8697 31.5938 53.9353C31.5938 53.7672 31.5703 53.6107 31.5235 53.4659C31.4813 53.3211 31.418 53.1857 31.3336 53.0597C31.2539 52.9288 31.1649 52.8122 31.0664 52.7095C30.968 52.6068 30.9328 52.5647 30.961 52.5835C30.5578 52.658 30.2649 52.8077 30.082 53.0319C29.9039 53.2561 29.8149 53.6062 29.8149 54.0824ZM43.0125 43.532L40.8678 45.6689L32.9789 37.4511L35.3202 35.0972L43.0125 43.532ZM65.0643 45.6967H61.0917V60.7307H57.7095V57.186C56.819 57.854 55.5536 58.1881 53.9129 58.1881C52.2627 58.1881 50.8754 57.7536 49.7504 56.8847C48.6254 56.0162 48.0629 54.8881 48.0629 53.5013C48.0629 52.3006 48.3158 51.4111 48.822 50.8318H45.6932V47.6654H55.3893V50.8318H52.8864C51.8411 51.6868 51.3182 52.4925 51.3182 53.2489C51.3182 54.5379 52.202 55.1827 53.9691 55.1827C54.5316 55.1827 55.2161 55.0074 56.022 54.6572C56.805 54.3115 57.3675 53.9775 57.7095 53.6551V45.6967H44.273V42.537H65.0643V45.6967ZM77.546 45.6967H72.2162V48.9612C72.2162 50.4933 72.0897 51.6352 71.8363 52.3871C71.344 53.8443 70.7771 54.5729 70.1349 54.5729L74.9652 60.2057L72.3566 62.4054L63.3003 51.8827L65.9373 49.7041L67.6878 51.7635C67.5897 51.8433 67.5942 51.82 67.7022 51.6935C68.4519 51.6935 68.8272 50.9909 68.8272 49.5849V45.6967H63.0263V42.537H77.546V45.6967Z" fill="#009900"/>
<path d="M92.14 45.6968H88.6386V50.0056H81.1573C80.9323 50.0056 80.7402 50.0849 80.5809 50.2437C80.4211 50.4024 80.3415 50.5988 80.3415 50.8319C80.3415 51.0982 80.4657 51.3108 80.7141 51.4695C80.9814 51.6376 81.3072 51.7219 81.6915 51.7219C82.0762 51.7219 82.5402 51.6565 83.0838 51.5255C83.6323 51.3901 84.1386 51.3224 84.6025 51.3224C85.962 51.3224 87.0987 51.6753 88.0126 52.3806C89.0112 53.1558 89.5102 54.1924 89.5102 55.4909C89.5102 57.317 88.7767 58.737 87.3097 59.7503C86.0628 60.6098 84.5251 61.0394 82.6972 61.0394C80.0067 61.0394 77.754 60.0516 75.94 58.0761L78.2391 55.9953C79.4019 57.2655 80.8878 57.9008 82.6972 57.9008C83.6535 57.9008 84.4855 57.7233 85.1934 57.3682C85.9525 56.9763 86.3323 56.4297 86.3323 55.7289C86.3323 55.3555 86.1753 55.0403 85.8612 54.7833C85.5331 54.517 85.1533 54.3839 84.7222 54.3839C84.3658 54.3839 83.9442 54.4538 83.4564 54.5941C82.9735 54.7295 82.5024 54.7972 82.0434 54.7972C78.8277 54.7972 77.2198 53.4826 77.2198 50.853C77.2198 49.4519 77.7495 48.3919 78.8088 47.6727C79.5355 47.1773 80.3113 46.9298 81.1362 46.9298H85.2564V45.6968H75.5391V42.5372H92.14V45.6968ZM99.0817 45.6968H95.1163V60.7309H91.7341V45.6968H90.1029V42.5372H99.0817V45.6968ZM98.9413 34.698C98.9413 36.8604 98.4256 38.5136 97.3942 39.6578C96.3066 40.8675 94.8535 41.4723 93.0351 41.4723C91.2117 41.4723 89.7559 40.8675 88.6683 39.6578C87.6324 38.5136 87.1144 36.8604 87.1144 34.698H89.962C89.962 36.1085 90.2271 37.1196 90.7567 37.7314C91.2913 38.3665 92.046 38.6844 93.0207 38.6844C94.0053 38.6844 94.7644 38.3692 95.299 37.7384C95.8242 37.1219 96.0865 36.1085 96.0865 34.698H98.9413ZM114.379 45.6968H108.888V50.601H106.041C103.12 50.601 101.66 51.6192 101.66 53.6553C101.66 54.7345 102.04 55.6169 102.799 56.3037C103.554 56.9714 104.503 57.3054 105.647 57.3054C106.983 57.3054 108.438 56.5956 110.013 55.1757L112.383 57.5506C110.381 59.601 108.101 60.626 105.541 60.626C103.601 60.626 101.915 59.9884 100.486 58.7133C98.9998 57.3964 98.2569 55.7966 98.2569 53.9144C98.2569 51.6775 98.967 49.989 100.388 48.8493C101.616 47.8593 103.265 47.3643 105.338 47.3643H105.506V45.6968H97.0477V42.5372H114.379V45.6968ZM112.664 64.8576L110.927 67.1766L103.123 63.6874L104.888 61.4599L112.664 64.8576ZM133.829 45.6968H129.864V60.7309H126.481V53.6064H120.596C120.273 54.4798 119.823 54.977 119.246 55.0985L123.591 60.2059L120.983 62.4055L112.623 52.5837L115.252 50.3836L117.01 52.4783C116.851 52.6092 116.809 52.572 116.884 52.3662C117.723 52.3662 118.142 51.1848 118.142 48.8215V45.6968H112.341V42.5372H133.829V45.6968ZM126.481 50.4396V45.6968H121.531V48.8215C121.531 49.7648 121.522 50.3042 121.503 50.4396H126.481Z" fill="#00208C"/>
<path d="M22.8551 29.3176V11.9722H19.1489V22.8683L11.084 11.9722H7.27344V29.3176H10.9796V18.0053L19.2794 29.3176H22.8551ZM38.2154 29.3176V16.7571H34.8746V18.3694C33.8567 17.0692 32.4734 16.445 30.9857 16.445C27.7754 16.445 25.4003 18.9415 25.4003 23.0243C25.4003 27.2372 27.8276 29.6296 30.9857 29.6296C32.5256 29.6296 33.8828 28.9535 34.8746 27.7052V29.3176H38.2154ZM32.0297 26.691C30.1244 26.691 28.8194 25.2088 28.8194 23.0243C28.8194 20.8659 30.1244 19.3836 32.0297 19.3836C33.1259 19.3836 34.3265 20.0077 34.8746 20.8399V25.2608C34.3265 26.0929 33.1259 26.691 32.0297 26.691ZM45.7304 29.6296C47.1137 29.6296 48.0011 29.2656 48.497 28.8235L47.7923 26.301C47.6096 26.509 47.1398 26.691 46.6439 26.691C45.9131 26.691 45.4955 26.0929 45.4955 25.2868V19.6437H48.0533V16.7571H45.4955V13.3244H42.1808V16.7571H40.0928V19.6437H42.1808V26.1709C42.1808 28.4334 43.4075 29.6296 45.7304 29.6296ZM62.1446 29.3176V16.7571H58.8299V25.2608C58.2557 25.9889 57.2378 26.691 55.9589 26.691C54.5495 26.691 53.636 26.1189 53.636 24.3766V16.7571H50.3213V25.6768C50.3213 28.1213 51.6263 29.6296 54.3929 29.6296C56.4548 29.6296 57.9686 28.6674 58.8299 27.7313V29.3176H62.1446ZM68.7506 29.3176V21.0219C69.2987 20.2158 70.7603 19.5917 71.8565 19.5917C72.248 19.5917 72.5351 19.6177 72.77 19.6697V16.445C71.204 16.445 69.6641 17.3552 68.7506 18.4474V16.7571H65.4359V29.3176H68.7506ZM80.7656 29.6296C82.7231 29.6296 84.7067 29.0315 85.9595 27.8873L84.4718 25.7029C83.6627 26.483 82.2011 26.9251 81.131 26.9251C78.9908 26.9251 77.738 25.6508 77.5031 24.1165H86.873V23.3364C86.873 19.2536 84.3413 16.445 80.5568 16.445C76.7462 16.445 74.0318 19.3836 74.0318 23.0243C74.0318 27.0551 76.9289 29.6296 80.7656 29.6296ZM83.6888 21.8281H77.477C77.6075 20.5799 78.4949 19.1496 80.5568 19.1496C82.7492 19.1496 83.5844 20.6319 83.6888 21.8281Z" fill="#009900"/>
<path d="M96.5134 29.3176C101.942 29.3176 105.727 25.8849 105.727 20.6319C105.727 15.4308 101.942 11.9722 96.4873 11.9722H89.623V29.3176H96.5134ZM96.4873 26.0669H93.3292V15.2228H96.5134C100.063 15.2228 101.942 17.5893 101.942 20.6319C101.942 23.5964 99.9325 26.0669 96.4873 26.0669ZM114.125 29.6296C118.301 29.6296 120.807 26.587 120.807 23.0243C120.807 19.4616 118.301 16.445 114.125 16.445C109.975 16.445 107.47 19.4616 107.47 23.0243C107.47 26.587 109.975 29.6296 114.125 29.6296ZM114.125 26.691C112.063 26.691 110.915 25.0007 110.915 23.0243C110.915 21.0739 112.063 19.3836 114.125 19.3836C116.213 19.3836 117.361 21.0739 117.361 23.0243C117.361 25.0007 116.213 26.691 114.125 26.691ZM127.519 29.6296C128.903 29.6296 129.79 29.2656 130.286 28.8235L129.581 26.301C129.399 26.509 128.929 26.691 128.433 26.691C127.702 26.691 127.284 26.0929 127.284 25.2868V19.6437H129.842V16.7571H127.284V13.3244H123.97V16.7571H121.882V19.6437H123.97V26.1709C123.97 28.4334 125.196 29.6296 127.519 29.6296ZM136.652 29.6296C140.149 29.6296 142.133 27.9393 142.133 25.6248C142.133 20.5538 134.642 22.1142 134.642 20.2678C134.642 19.5657 135.425 19.0456 136.626 19.0456C138.165 19.0456 139.601 19.7217 140.358 20.5018L141.689 18.1614C140.436 17.1732 138.74 16.445 136.626 16.445C133.285 16.445 131.458 18.2914 131.458 20.3978C131.458 25.3388 138.922 23.6485 138.922 25.7029C138.922 26.483 138.244 27.0291 136.808 27.0291C135.242 27.0291 133.389 26.1709 132.45 25.2868L131.014 27.6792C132.345 28.9015 134.459 29.6296 136.652 29.6296Z" fill="#00208C"/>
<path d="M148.01 17.2118L147.2 15.9922C147.61 15.9564 147.983 15.6604 147.983 15.1224C147.983 14.5709 147.587 14.2212 147.038 14.2212H145.832V17.2118H146.206V16.0236H146.809L147.569 17.2118H148.01ZM146.993 15.6963H146.206V14.553H146.993C147.349 14.553 147.596 14.7816 147.596 15.1224C147.596 15.4587 147.349 15.6963 146.993 15.6963Z" fill="#00208C"/>
<path d="M146.852 19.2294C148.716 19.2294 150.227 17.7238 150.227 15.8666C150.227 14.0095 148.716 12.5039 146.852 12.5039C144.988 12.5039 143.477 14.0095 143.477 15.8666C143.477 17.7238 144.988 19.2294 146.852 19.2294Z" stroke="#00208C"/>
</svg>
